<svg width="48" height="48" viewBox="0 0 48 48" fill="none" xmlns="http://www.w3.org/2000/svg">
  <rect width="48" height="48" rx="8" fill="#F8FAFC"/>
  <path d="M24 10C16.268 10 10 16.268 10 24C10 30.196 14.11 35.44 19.812 37.496C20.512 37.626 20.76 37.192 20.76 36.822C20.76 36.492 20.746 35.458 20.746 34.304C16.5 35.146 15.56 32.632 15.56 32.632C14.84 30.928 13.82 30.51 13.82 30.51C12.4 29.636 13.91 29.636 13.91 29.636C15.462 29.734 16.31 31.096 16.31 31.096C17.7 33.35 19.944 32.698 20.802 32.328C20.93 31.356 21.312 30.686 21.724 30.31C18.274 29.948 14.656 28.72 14.656 23.4C14.656 21.682 15.268 20.276 16.324 19.178C16.166 18.836 15.616 17.374 16.45 15.286C16.45 15.286 17.798 14.916 20.734 16.888C21.7866 16.5879 22.8769 16.4366 23.972 16.44C25.08 16.44 26.202 16.58 27.21 16.888C30.156 14.916 31.504 15.286 31.504 15.286C32.338 17.374 31.788 18.836 31.648 19.178C32.71 20.276 33.316 21.682 33.316 23.4C33.316 28.72 29.684 29.934 26.22 30.31C26.752 30.784 27.2 31.699 27.2 33.126C27.2 35.16 27.186 36.36 27.186 36.816C27.186 37.192 27.44 37.626 28.14 37.49C33.89 35.44 38 30.19 38 24C38 16.268 31.732 10 24 10Z" fill="black"/>
</svg> 